<?xml version="1.0" encoding="UTF-8" standalone="no"?>
<!DOCTYPE svg PUBLIC "-//W3C//DTD SVG 1.1//EN" "http://www.w3.org/Graphics/SVG/1.1/DTD/svg11.dtd">
<svg width="100%" height="100%" viewBox="0 0 1600 80" version="1.1" xmlns="http://www.w3.org/2000/svg" xmlns:xlink="http://www.w3.org/1999/xlink" xml:space="preserve" xmlns:serif="http://www.serif.com/" style="fill-rule:evenodd;clip-rule:evenodd;stroke-linejoin:round;stroke-miterlimit:2;">
    <g transform="matrix(0.1,0,0,-0.1,0,80)">
        <path d="M0,800L0,107L63,115C149,125 440,130 440,121C440,112 751,108 793,117C834,124 817,134 752,141C702,146 707,147 795,150C850,151 906,154 920,155C959,159 1078,162 1150,161L1215,159L1191,140L1168,120L1196,118C1212,118 1232,117 1240,118C1248,119 1283,121 1317,122C1350,124 1376,128 1373,133C1371,137 1378,140 1389,140C1400,140 1412,135 1415,130C1423,118 1619,117 1638,129C1661,143 1626,150 1528,150C1378,150 1434,160 1613,165C1723,168 1781,166 1786,159C1790,152 1781,149 1764,150C1706,154 1678,150 1682,138C1684,132 1692,124 1700,122C1707,119 1710,121 1707,126C1704,131 1730,134 1763,132C1893,126 1980,129 1997,140C2012,149 2006,150 1970,149C1907,147 1890,149 1890,159C1890,163 1927,168 1973,169C2018,170 2064,173 2075,175C2086,178 2120,176 2150,171C2180,166 2194,162 2179,161C2165,161 2148,154 2142,148C2133,139 2124,138 2112,146C2103,151 2082,153 2065,150C1998,136 2080,130 2251,135C2347,138 2605,143 2825,145C3045,148 3318,152 3433,153C3547,155 3640,153 3640,150C3640,147 3670,146 3706,148C3770,152 3772,152 3765,131C3760,114 3763,110 3779,110C3791,110 3800,106 3800,100C3800,95 3812,90 3828,90C3854,91 3854,91 3836,105C3817,120 3817,120 3838,120C3851,120 3860,114 3860,106C3860,94 3875,92 3941,95C3987,97 4026,104 4030,110C4034,116 4054,121 4076,120C4119,119 4222,126 4315,135C4348,139 4416,141 4465,140C4771,135 5010,136 5010,143C5010,149 4950,154 4903,153C4896,152 4893,156 4896,161C4905,177 5033,172 5058,155C5078,141 5079,141 5074,155C5069,168 5078,170 5134,170C5194,170 5219,159 5188,147C5176,142 5204,138 5270,135C5284,134 5301,131 5306,127C5312,124 5371,121 5437,121C5503,121 5565,118 5574,114C5583,111 5596,112 5603,118C5623,135 5810,146 5810,130C5810,122 5817,120 5833,125C5870,137 6031,139 6023,127C6017,117 6049,121 6083,135C6096,140 6099,138 6095,128C6090,116 6103,114 6172,116C6218,117 6271,124 6291,133C6327,148 6390,145 6390,129C6390,123 6400,125 6412,131C6427,139 6463,141 6523,136C6580,132 6619,134 6632,141C6648,149 6655,149 6661,139C6675,116 6671,110 6645,110C6611,110 6613,90 6648,89C6663,89 6698,87 6725,85C6753,84 6765,84 6753,87C6741,89 6730,97 6727,103C6724,112 6743,116 6794,117C6833,117 6876,121 6890,124C6915,130 6950,116 6938,105C6934,101 6911,98 6886,98C6860,97 6843,94 6846,91C6849,88 6884,85 6925,85C6976,85 6996,88 6993,97C6987,113 7016,120 7087,118C7140,117 7147,115 7132,103C7117,92 7118,91 7140,91C7154,92 7180,89 7198,85C7219,80 7230,81 7230,89C7230,95 7237,100 7246,100C7254,100 7258,104 7255,110C7245,126 7262,122 7282,103C7297,90 7316,86 7368,88C7405,90 7438,94 7442,98C7446,102 7487,103 7532,99C7578,95 7617,93 7619,96C7629,105 7609,111 7554,116C7523,118 7494,122 7492,125C7478,139 7509,145 7578,142C7652,139 7679,132 7653,123C7622,112 7645,103 7698,106C7771,110 7774,111 7726,119C7704,122 7685,131 7682,138C7679,148 7732,150 7949,149C8208,147 8219,146 8209,128C8202,114 8188,110 8150,110C8123,110 8098,114 8095,120C8092,125 8079,129 8067,129C8049,128 8048,127 8063,123C8073,120 8079,113 8077,106C8073,96 8101,93 8193,91C8260,90 8322,88 8330,88C8382,85 8420,91 8420,104C8420,128 8506,140 8527,119C8535,111 8546,111 8567,118C8582,124 8588,129 8580,129C8567,130 8567,131 8580,140C8600,153 8670,153 8670,140C8670,128 8767,127 8774,139C8782,151 9418,145 9458,132C9476,126 9488,125 9485,131C9481,136 9487,140 9497,141C9507,141 9603,143 9710,146C9824,149 9906,155 9908,160C9910,166 9917,167 9923,163C9938,153 10739,151 10745,160C10748,164 10767,164 10787,161C10817,156 11225,155 11225,160C11225,161 11365,164 11535,166C11706,168 11895,172 11955,175C12016,178 12250,183 12475,186C12908,191 12950,192 13180,191C13260,191 13485,193 13679,196C13874,198 14031,198 14028,194C14024,191 13960,187 13885,185C13742,182 13688,171 13806,169C13903,168 13839,153 13728,152C13653,151 13633,160 13685,173C13696,176 13659,178 13603,179C13516,180 13501,178 13506,165C13510,156 13506,150 13496,150C13487,150 13483,156 13486,164C13490,174 13484,176 13463,173C13402,164 13297,162 13269,170C13253,175 13242,175 13245,170C13252,159 13056,152 13010,162C12989,166 12973,165 12969,158C12965,151 12901,148 12789,148C12433,149 12355,151 12348,163C12344,170 12337,170 12325,160C12311,149 12250,145 12027,144C11828,142 11745,138 11740,130C11734,121 11718,121 11674,130C11632,139 11615,139 11612,131C11607,116 11537,117 11521,132C11510,142 11508,142 11514,132C11519,125 11515,120 11503,120C11493,120 11480,116 11473,112C11467,108 11535,104 11624,103C11713,102 11798,96 11813,91C11833,83 11839,84 11837,93C11836,102 11875,106 11993,108C12124,111 12155,109 12175,96C12201,79 12295,73 12286,89C12283,94 12271,96 12260,93C12249,90 12240,92 12240,98C12240,112 12290,116 12435,111C12511,109 12548,105 12535,100C12519,93 12522,91 12550,91C12576,90 12581,93 12570,100C12559,107 12564,110 12590,110C12901,116 13179,116 13155,111C13133,106 13129,102 13139,96C13162,81 13240,87 13259,104C13279,122 13310,125 13310,110C13310,105 13303,100 13294,100C13286,100 13282,95 13286,89C13290,82 13305,81 13324,85C13374,96 13609,100 13615,90C13621,80 13727,88 13750,101C13758,105 13738,107 13705,104C13648,99 13646,100 13670,114C13703,134 13821,134 13813,114C13809,103 13821,100 13861,98C13891,97 13933,95 13955,94C14031,89 14325,94 14355,99C14361,101 14356,105 14345,110C14327,118 14328,119 14352,119C14367,120 14381,124 14384,128C14388,134 14504,136 14688,131C14711,130 14730,127 14730,122C14730,118 14680,115 14619,115C14559,116 14507,113 14505,110C14502,106 14477,104 14448,106L14395,109L14440,100C14488,91 14542,90 14830,92C15037,93 15312,81 15306,71C15304,68 15459,65 15651,65L16000,65L16000,800L0,800ZM8810,196C8810,194 8803,189 8794,186C8786,183 8782,184 8785,190C8791,200 8810,204 8810,196ZM9245,190C9249,184 9240,180 9226,180C9212,180 9200,185 9200,190C9200,196 9209,200 9219,200C9230,200 9242,196 9245,190ZM9420,188C9420,184 9394,180 9363,181C9320,182 9312,184 9330,189C9363,199 9420,198 9420,188ZM14140,192C14140,188 14122,186 14100,188C14078,190 14060,194 14060,196C14060,198 14078,200 14100,200C14122,200 14140,197 14140,192ZM14257,194C14254,191 14245,190 14238,193C14230,196 14233,199 14244,199C14255,200 14261,197 14257,194ZM14824,190C14796,179 14610,173 14610,183C14610,187 14601,186 14591,180C14569,169 14530,167 14505,176C14468,191 14518,197 14678,197C14770,197 14836,194 14824,190ZM15088,194C15078,185 14990,182 14996,191C14999,196 15022,200 15047,200C15073,200 15091,197 15088,194ZM15325,194C15278,187 15100,185 15100,192C15100,196 15155,199 15223,199C15290,198 15336,196 15325,194ZM15377,194C15374,191 15365,190 15358,193C15350,196 15353,199 15364,199C15375,200 15381,197 15377,194ZM15735,190C15708,179 15480,177 15480,189C15480,194 15542,198 15618,199C15705,199 15748,196 15735,190ZM2585,170C2514,160 2301,160 2340,170C2359,175 2417,179 2469,179C2520,179 2564,181 2566,183C2569,185 2583,185 2598,181C2623,176 2622,175 2585,170ZM4490,170C4490,165 4483,160 4474,160C4466,160 4462,165 4465,170C4468,176 4475,180 4481,180C4486,180 4490,176 4490,170ZM14190,170C14190,165 14186,160 14180,160C14175,160 14170,165 14170,170C14170,176 14175,180 14180,180C14186,180 14190,176 14190,170ZM4707,164C4704,161 4695,160 4688,163C4680,166 4683,169 4694,169C4705,170 4711,167 4707,164ZM4877,164C4874,161 4865,160 4858,163C4850,166 4853,169 4864,169C4875,170 4881,167 4877,164ZM13605,160C13602,155 13582,151 13562,151L13525,152L13555,160C13599,171 13612,171 13605,160ZM14030,160C13972,157 13918,158 13910,162C13902,166 13949,169 14015,168L14135,166L14030,160ZM1387,154C1384,151 1375,150 1368,153C1360,156 1363,159 1374,159C1385,160 1391,157 1387,154ZM6240,152C6240,142 6154,143 6144,153C6140,157 6160,160 6188,160C6217,160 6240,156 6240,152ZM6293,153C6296,148 6287,144 6274,144C6261,143 6253,146 6256,151C6262,162 6287,163 6293,153ZM14557,154C14554,151 14545,150 14538,153C14530,156 14533,159 14544,159C14555,160 14561,157 14557,154ZM7441,140C7446,140 7450,136 7450,130C7450,125 7431,120 7408,120C7368,121 7366,122 7385,136C7396,144 7411,148 7418,145C7426,142 7436,140 7441,140ZM8360,139C8411,138 8413,137 8380,130C8361,125 8344,117 8342,111C8339,101 8330,103 8278,122C8246,134 8251,155 8284,146C8295,143 8330,140 8360,139ZM7183,133C7176,131 7164,131 7158,133C7151,136 7156,138 7170,138C7184,138 7189,136 7183,133ZM14113,133C14117,130 14115,121 14109,113C14096,98 14060,95 14060,109C14060,114 14054,120 14048,123C14041,125 14042,126 14051,125C14060,124 14074,126 14081,131C14098,142 14105,142 14113,133ZM14985,128C15045,126 15029,124 14925,120C14771,114 14730,117 14752,132C14759,137 14797,139 14835,136C14874,133 14941,130 14985,128ZM4009,121C4018,115 3997,112 3952,112C3912,113 3880,117 3880,121C3880,133 3991,132 4009,121ZM13425,120C13422,115 13414,110 13409,110C13403,110 13402,115 13405,120C13408,126 13416,130 13421,130C13427,130 13428,126 13425,120ZM13965,120C13969,114 13958,110 13941,110C13924,110 13910,115 13910,120C13910,126 13921,130 13934,130C13948,130 13962,126 13965,120ZM7227,113C7217,104 7161,103 7167,113C7169,117 7185,120 7202,120C7219,120 7230,117 7227,113ZM7335,110C7324,105 7308,101 7300,101C7287,100 7287,101 7300,110C7308,115 7324,119 7335,119L7355,119L7335,110ZM13250,110C13250,105 13239,100 13226,100C13212,100 13198,105 13195,110C13191,116 13202,120 13219,120C13236,120 13250,116 13250,110ZM13350,116C13350,113 13346,108 13340,105C13335,102 13330,104 13330,109C13330,115 13335,120 13340,120C13346,120 13350,118 13350,116Z" style="fill:rgb(0,19,34);fill-rule:nonzero;"/>
        <path d="M885,130C881,124 895,120 919,120C942,120 960,125 960,130C960,136 945,140 926,140C907,140 888,136 885,130Z" style="fill:rgb(0,19,34);fill-rule:nonzero;"/>
        <path d="M1035,130C1038,125 1056,120 1075,120C1094,120 1112,125 1115,130C1119,136 1103,140 1075,140C1047,140 1031,136 1035,130Z" style="fill:rgb(0,19,34);fill-rule:nonzero;"/>
        <path d="M11057,134C11047,125 10750,114 10660,119C10652,119 10609,120 10565,120C10521,120 10459,122 10427,124C10396,126 10367,124 10364,119C10362,114 10339,111 10314,112C10284,112 10273,116 10281,121C10304,135 10285,131 10251,114C10234,106 10205,99 10187,100C10132,103 10086,100 10093,94C10096,91 10135,88 10179,89C10234,90 10260,86 10260,79C10260,71 10246,69 10218,72C10170,78 10118,68 10137,57C10143,53 10235,48 10341,47C10447,45 10525,47 10514,51C10499,57 10501,59 10525,59C10542,59 10563,53 10573,46C10591,32 10630,35 10630,51C10630,55 10625,62 10618,66C10600,77 10637,88 10696,89C10757,90 10812,81 10805,70C10796,56 10859,51 10972,56C11034,59 11087,64 11089,66C11091,68 11045,70 10985,70C10925,70 10879,73 10882,76C10890,83 11178,94 11298,92C11350,91 11399,94 11408,100C11420,107 11406,109 11357,110C11319,110 11279,115 11267,122C11250,131 11065,141 11057,134ZM10865,80C10869,74 10860,70 10845,70C10830,70 10821,74 10825,80C10828,86 10837,90 10845,90C10853,90 10862,86 10865,80Z" style="fill:rgb(0,19,34);fill-rule:nonzero;"/>
        <path d="M6480,106C6480,90 6521,77 6544,86C6559,92 6559,94 6543,106C6519,124 6480,124 6480,106Z" style="fill:rgb(0,19,34);fill-rule:nonzero;"/>
        <path d="M9265,110C9262,105 9235,99 9207,99L9155,98L9195,90C9217,85 9269,82 9310,83L9385,84L9338,94C9311,99 9290,107 9290,112C9290,123 9272,122 9265,110Z" style="fill:rgb(0,19,34);fill-rule:nonzero;"/>
        <path d="M8600,99C8586,93 8563,90 8548,93C8533,95 8523,93 8526,88C8533,77 8669,79 8695,90C8713,98 8713,99 8690,99C8676,100 8656,102 8645,105C8634,107 8614,105 8600,99Z" style="fill:rgb(0,19,34);fill-rule:nonzero;"/>
        <path d="M8755,101C8730,97 8721,93 8731,88C8750,81 8798,89 8806,101C8809,106 8808,109 8803,109C8799,108 8777,104 8755,101Z" style="fill:rgb(0,19,34);fill-rule:nonzero;"/>
        <path d="M12615,100C12598,93 12600,91 12628,91C12645,90 12660,95 12660,100C12660,112 12643,112 12615,100Z" style="fill:rgb(0,19,34);fill-rule:nonzero;"/>
        <path d="M13060,100C13060,88 13068,88 13095,100C13113,108 13112,109 13088,109C13072,110 13060,106 13060,100Z" style="fill:rgb(0,19,34);fill-rule:nonzero;"/>
        <path d="M5558,93C5565,90 5574,91 5577,94C5581,97 5575,100 5564,99C5553,99 5550,96 5558,93Z" style="fill:rgb(0,19,34);fill-rule:nonzero;"/>
        <path d="M7916,92C7913,87 7924,86 7941,88C7957,90 7970,94 7970,96C7970,104 7921,100 7916,92Z" style="fill:rgb(0,19,34);fill-rule:nonzero;"/>
        <path d="M8938,88C8922,79 9058,79 9082,88C9092,92 9066,95 9025,96C8984,96 8945,93 8938,88Z" style="fill:rgb(0,19,34);fill-rule:nonzero;"/>
        <path d="M9413,88C9411,83 9445,80 9488,80C9533,80 9586,74 9610,65C9633,57 9661,50 9672,50C9689,50 9690,53 9680,65C9669,78 9672,80 9694,80C9709,80 9723,73 9726,65C9731,52 9762,50 9922,50C10042,50 10109,54 10105,60C10101,66 10056,67 9987,63C9911,59 9878,61 9885,68C9891,73 9930,80 9973,83C10129,93 10054,97 9739,96C9563,95 9416,92 9413,88Z" style="fill:rgb(0,19,34);fill-rule:nonzero;"/>
        <path d="M12775,91C12772,85 12793,84 12827,87C12903,95 12907,100 12837,100C12806,100 12779,96 12775,91Z" style="fill:rgb(0,19,34);fill-rule:nonzero;"/>
        <path d="M12950,90C12939,82 12943,81 12965,86C13002,94 13010,100 12984,100C12974,100 12958,95 12950,90Z" style="fill:rgb(0,19,34);fill-rule:nonzero;"/>
        <path d="M6026,80C6033,73 6050,73 6076,79L6115,88L6066,89C6032,90 6019,87 6026,80Z" style="fill:rgb(0,19,34);fill-rule:nonzero;"/>
        <path d="M15070,60C15070,52 15078,50 15091,53C15105,57 15110,55 15106,45C15103,35 15125,30 15201,25C15256,21 15304,21 15307,24C15311,27 15304,30 15292,30C15280,30 15270,35 15270,41C15270,46 15275,48 15280,45C15286,42 15290,43 15290,47C15290,52 15273,56 15253,57C15232,57 15182,61 15143,65C15087,71 15070,70 15070,60Z" style="fill:rgb(0,19,34);fill-rule:nonzero;"/>
        <path d="M15343,40C15330,35 15320,29 15320,28C15320,26 15350,24 15388,24C15425,23 15444,24 15430,27C15416,30 15401,36 15396,41C15384,52 15372,52 15343,40Z" style="fill:rgb(0,19,34);fill-rule:nonzero;"/>
        <path d="M15565,41C15559,35 15535,30 15510,28C15485,25 15533,24 15615,23L15765,23L15690,36C15596,52 15576,52 15565,41Z" style="fill:rgb(0,19,34);fill-rule:nonzero;"/>
        <path d="M15885,30C15814,26 15802,23 15829,17C15871,8 15959,9 15984,19C16017,32 15983,35 15885,30Z" style="fill:rgb(0,19,34);fill-rule:nonzero;"/>
    </g>
</svg>
